<svg width="135" height="25" viewBox="0 0 135 25" fill="none" xmlns="http://www.w3.org/2000/svg">
<path d="M40.608 8.784C42.2613 8.784 43.5307 9.07733 44.416 9.664C45.3013 10.24 45.744 11.1893 45.744 12.512C45.744 13.8453 45.296 14.8107 44.4 15.408C43.504 15.9947 42.224 16.288 40.56 16.288H39.776V20H37.28V9.072C37.824 8.96533 38.4 8.89067 39.008 8.848C39.616 8.80533 40.1493 8.784 40.608 8.784ZM40.768 10.912C40.5867 10.912 40.4053 10.9173 40.224 10.928C40.0533 10.9387 39.904 10.9493 39.776 10.96V14.16H40.56C41.424 14.16 42.0747 14.0427 42.512 13.808C42.9493 13.5733 43.168 13.136 43.168 12.496C43.168 12.1867 43.1093 11.9307 42.992 11.728C42.8853 11.5253 42.7253 11.3653 42.512 11.248C42.3093 11.12 42.0587 11.0347 41.76 10.992C41.4613 10.9387 41.1307 10.912 40.768 10.912ZM55.1449 8.912H57.6409V20H55.1449V15.296H50.9529V20H48.4569V8.912H50.9529V13.152H55.1449V8.912ZM63.1829 14.448C63.1829 14.992 63.2469 15.4827 63.3749 15.92C63.5135 16.3573 63.7055 16.736 63.9509 17.056C64.2069 17.3653 64.5162 17.6053 64.8789 17.776C65.2415 17.9467 65.6575 18.032 66.1269 18.032C66.5855 18.032 66.9962 17.9467 67.3589 17.776C67.7322 17.6053 68.0415 17.3653 68.2869 17.056C68.5429 16.736 68.7349 16.3573 68.8629 15.92C69.0015 15.4827 69.0709 14.992 69.0709 14.448C69.0709 13.904 69.0015 13.4133 68.8629 12.976C68.7349 12.528 68.5429 12.1493 68.2869 11.84C68.0415 11.52 67.7322 11.2747 67.3589 11.104C66.9962 10.9333 66.5855 10.848 66.1269 10.848C65.6575 10.848 65.2415 10.9387 64.8789 11.12C64.5162 11.2907 64.2069 11.536 63.9509 11.856C63.7055 12.1653 63.5135 12.544 63.3749 12.992C63.2469 13.4293 63.1829 13.9147 63.1829 14.448ZM71.6469 14.448C71.6469 15.3973 71.5029 16.2347 71.2149 16.96C70.9375 17.6747 70.5535 18.2773 70.0629 18.768C69.5722 19.248 68.9855 19.6107 68.3029 19.856C67.6309 20.1013 66.9055 20.224 66.1269 20.224C65.3695 20.224 64.6549 20.1013 63.9829 19.856C63.3109 19.6107 62.7242 19.248 62.2229 18.768C61.7215 18.2773 61.3269 17.6747 61.0389 16.96C60.7509 16.2347 60.6069 15.3973 60.6069 14.448C60.6069 13.4987 60.7562 12.6667 61.0549 11.952C61.3535 11.2267 61.7535 10.6187 62.2549 10.128C62.7669 9.63733 63.3535 9.26933 64.0149 9.024C64.6869 8.77867 65.3909 8.656 66.1269 8.656C66.8842 8.656 67.5989 8.77867 68.2709 9.024C68.9429 9.26933 69.5295 9.63733 70.0309 10.128C70.5322 10.6187 70.9269 11.2267 71.2149 11.952C71.5029 12.6667 71.6469 13.4987 71.6469 14.448ZM82.4565 8.912V11.04H79.1125V20H76.6165V11.04H73.2725V8.912H82.4565ZM86.6616 14.448C86.6616 14.992 86.7256 15.4827 86.8536 15.92C86.9923 16.3573 87.1843 16.736 87.4296 17.056C87.6856 17.3653 87.995 17.6053 88.3576 17.776C88.7203 17.9467 89.1363 18.032 89.6056 18.032C90.0643 18.032 90.475 17.9467 90.8376 17.776C91.211 17.6053 91.5203 17.3653 91.7656 17.056C92.0216 16.736 92.2136 16.3573 92.3416 15.92C92.4803 15.4827 92.5496 14.992 92.5496 14.448C92.5496 13.904 92.4803 13.4133 92.3416 12.976C92.2136 12.528 92.0216 12.1493 91.7656 11.84C91.5203 11.52 91.211 11.2747 90.8376 11.104C90.475 10.9333 90.0643 10.848 89.6056 10.848C89.1363 10.848 88.7203 10.9387 88.3576 11.12C87.995 11.2907 87.6856 11.536 87.4296 11.856C87.1843 12.1653 86.9923 12.544 86.8536 12.992C86.7256 13.4293 86.6616 13.9147 86.6616 14.448ZM95.1256 14.448C95.1256 15.3973 94.9816 16.2347 94.6936 16.96C94.4163 17.6747 94.0323 18.2773 93.5416 18.768C93.051 19.248 92.4643 19.6107 91.7816 19.856C91.1096 20.1013 90.3843 20.224 89.6056 20.224C88.8483 20.224 88.1336 20.1013 87.4616 19.856C86.7896 19.6107 86.203 19.248 85.7016 18.768C85.2003 18.2773 84.8056 17.6747 84.5176 16.96C84.2296 16.2347 84.0856 15.3973 84.0856 14.448C84.0856 13.4987 84.235 12.6667 84.5336 11.952C84.8323 11.2267 85.2323 10.6187 85.7336 10.128C86.2456 9.63733 86.8323 9.26933 87.4936 9.024C88.1656 8.77867 88.8696 8.656 89.6056 8.656C90.363 8.656 91.0776 8.77867 91.7496 9.024C92.4216 9.26933 93.0083 9.63733 93.5096 10.128C94.011 10.6187 94.4056 11.2267 94.6936 11.952C94.9816 12.6667 95.1256 13.4987 95.1256 14.448ZM105.935 8.912V11.04H102.591V20H100.095V11.04H96.7513V8.912H105.935ZM111.667 8.784C113.331 8.784 114.606 9.08267 115.491 9.68C116.377 10.2667 116.819 11.184 116.819 12.432C116.819 13.2107 116.638 13.8453 116.275 14.336C115.923 14.816 115.411 15.1947 114.739 15.472C114.963 15.7493 115.198 16.0693 115.443 16.432C115.689 16.784 115.929 17.1573 116.163 17.552C116.409 17.936 116.643 18.3413 116.867 18.768C117.091 19.184 117.299 19.5947 117.491 20H114.691C114.489 19.6373 114.281 19.2693 114.067 18.896C113.865 18.5227 113.651 18.16 113.427 17.808C113.214 17.456 113.001 17.1253 112.787 16.816C112.574 16.496 112.361 16.208 112.147 15.952H110.915V20H108.419V9.072C108.963 8.96533 109.523 8.89067 110.099 8.848C110.686 8.80533 111.209 8.784 111.667 8.784ZM111.811 10.912C111.63 10.912 111.465 10.9173 111.315 10.928C111.177 10.9387 111.043 10.9493 110.915 10.96V13.968H111.619C112.558 13.968 113.23 13.8507 113.635 13.616C114.041 13.3813 114.243 12.9813 114.243 12.416C114.243 11.872 114.035 11.488 113.619 11.264C113.214 11.0293 112.611 10.912 111.811 10.912ZM119.971 8.912H122.467V20H119.971V8.912ZM129.242 8.784C130.895 8.784 132.164 9.07733 133.05 9.664C133.935 10.24 134.378 11.1893 134.378 12.512C134.378 13.8453 133.93 14.8107 133.034 15.408C132.138 15.9947 130.858 16.288 129.194 16.288H128.41V20H125.914V9.072C126.458 8.96533 127.034 8.89067 127.642 8.848C128.25 8.80533 128.783 8.784 129.242 8.784ZM129.402 10.912C129.22 10.912 129.039 10.9173 128.858 10.928C128.687 10.9387 128.538 10.9493 128.41 10.96V14.16H129.194C130.058 14.16 130.708 14.0427 131.146 13.808C131.583 13.5733 131.802 13.136 131.802 12.496C131.802 12.1867 131.743 11.9307 131.626 11.728C131.519 11.5253 131.359 11.3653 131.146 11.248C130.943 11.12 130.692 11.0347 130.394 10.992C130.095 10.9387 129.764 10.912 129.402 10.912Z" fill="white"/>
<g clip-path="url(#clip0)">
<path d="M14.7094 11.0715C15.9299 12.2919 15.9299 14.2706 14.7094 15.4911C13.489 16.7115 11.5103 16.7115 10.2899 15.4911C9.06947 14.2706 9.06947 12.2919 10.2899 11.0715C11.5103 9.85108 13.489 9.85108 14.7094 11.0715Z" fill="white"/>
<path d="M21.8749 4.68727H19.7157L18.1524 1.56216H6.84608L5.28426 4.68881L3.12813 4.69265C1.40919 4.69572 0.00987809 6.09651 0.00839381 7.81622L0 20.312C0 22.0355 1.40156 23.4379 3.12511 23.4379H21.8749C23.5985 23.4379 25.0001 22.0363 25.0001 20.3128V7.81233C25 6.08884 23.5984 4.68727 21.8749 4.68727ZM12.4996 19.5315C9.05329 19.5315 6.2494 16.7276 6.2494 13.2813C6.2494 9.83493 9.05329 7.03104 12.4996 7.03104C15.9459 7.03104 18.7498 9.83493 18.7498 13.2813C18.7498 16.7276 15.9459 19.5315 12.4996 19.5315Z" fill="white"/>
</g>
<defs>
<clipPath id="clip0">
<rect width="25" height="25" fill="white"/>
</clipPath>
</defs>
</svg>
